# Blender 3.5.1
# www.blender.org
mtllib pyramid.mtl
o Cone
v 0.000000 26.250423 0.000000
v 82.549995 0.015389 -82.549995
v 82.549995 0.015389 82.549995
v -82.549995 0.015389 82.549995
v -82.549995 0.015389 -82.549995
v 82.549995 0.015389 0.000000
v 0.000000 0.015389 82.549995
v -82.549995 0.015389 0.000000
v 0.000000 0.015389 -82.549995
vn 0.3029 0.9530 -0.0000
vn -0.0000 0.9530 0.3029
vn -0.3029 0.9530 -0.0000
vn -0.0000 0.9530 -0.3029
vt 0.250000 0.250000
vt 0.250000 0.490000
vt 0.490000 0.250000
vt 0.250000 0.010000
vt 0.010000 0.250000
vt 0.370000 0.370000
vt 0.370000 0.130000
vt 0.130000 0.130000
vt 0.130000 0.370000
s 0
f 2/2/1 1/1/1 3/3/1 6/6/1
f 3/3/2 1/1/2 4/4/2 7/7/2
f 4/4/3 1/1/3 5/5/3 8/8/3
f 5/5/4 1/1/4 2/2/4 9/9/4
